<svg width="210" height="31" viewBox="0 0 210 31" fill="none" xmlns="http://www.w3.org/2000/svg">
<mask id="path-1-outside-1_11_5" maskUnits="userSpaceOnUse" x="-0.480934" y="0.911999" width="211" height="30" fill="black">
<rect fill="white" x="-0.480934" y="0.911999" width="211" height="30"/>
<path d="M10.8151 23.6C9.19907 23.6 8.05507 23.376 7.38307 22.928C6.71107 22.464 6.37507 21.712 6.37507 20.672C6.37507 19.68 6.37507 18.848 6.37507 18.176C6.39107 17.488 6.39907 16.848 6.39907 16.256C6.39907 15.344 6.36707 14.424 6.30307 13.496C6.23907 12.568 6.11107 11.68 5.91907 10.832C5.72707 9.984 5.43907 9.216 5.05507 8.528C4.67107 7.84 4.15907 7.28 3.51907 6.848C4.60707 6.016 5.85507 5.6 7.26307 5.6C8.23907 5.6 9.01507 5.88 9.59107 6.44C10.1671 7 10.5991 7.752 10.8871 8.696C11.1751 9.624 11.3591 10.656 11.4391 11.792C11.5351 12.912 11.5831 14.04 11.5831 15.176C11.5831 15.912 11.5671 16.624 11.5351 17.312C11.5191 18 11.5111 18.632 11.5111 19.208H12.1351C12.5031 18.408 12.8951 17.504 13.3111 16.496C13.7271 15.488 14.1191 14.464 14.4871 13.424C14.8551 12.384 15.1511 11.4 15.3751 10.472C15.6151 9.544 15.7351 8.768 15.7351 8.144C15.7351 7.872 15.7111 7.632 15.6631 7.424C15.6151 7.2 15.5511 7.008 15.4711 6.848C16.0791 6.432 16.6471 6.12 17.1751 5.912C17.7191 5.704 18.2711 5.6 18.8311 5.6C19.7111 5.6 20.3271 5.856 20.6791 6.368C21.0471 6.864 21.2311 7.512 21.2311 8.312C21.2311 8.904 21.1191 9.6 20.8951 10.4C20.6711 11.2 20.3751 12.048 20.0071 12.944C19.6551 13.84 19.2791 14.736 18.8791 15.632C18.4791 16.512 18.0871 17.344 17.7031 18.128C17.3351 18.912 17.0311 19.592 16.7911 20.168L17.1271 21.488C16.6791 21.856 16.1111 22.2 15.4231 22.52C14.7511 22.84 14.0151 23.096 13.2151 23.288C12.4311 23.496 11.6311 23.6 10.8151 23.6Z"/>
<path d="M28.732 7.04C27.996 7.04 27.388 6.88 26.908 6.56C26.428 6.24 26.188 5.808 26.188 5.264C26.188 4.736 26.364 4.304 26.716 3.968C27.068 3.616 27.492 3.352 27.988 3.176C28.5 3 28.98 2.912 29.428 2.912C30.164 2.912 30.772 3.072 31.252 3.392C31.732 3.696 31.972 4.128 31.972 4.688C31.972 5.152 31.82 5.568 31.516 5.936C31.212 6.288 30.812 6.56 30.316 6.752C29.836 6.944 29.308 7.04 28.732 7.04ZM27.292 23.6C26.268 23.6 25.54 23.344 25.108 22.832C24.676 22.32 24.46 21.584 24.46 20.624C24.46 20.272 24.508 19.784 24.604 19.16C24.7 18.52 24.828 17.816 24.988 17.048C25.148 16.264 25.316 15.472 25.492 14.672C25.668 13.872 25.836 13.12 25.996 12.416L24.652 10.4C25.5 9.888 26.308 9.464 27.076 9.128C27.844 8.776 28.612 8.6 29.38 8.6C30.052 8.6 30.516 8.744 30.772 9.032C31.044 9.32 31.18 9.768 31.18 10.376C31.18 10.616 31.116 11.008 30.988 11.552C30.876 12.096 30.732 12.736 30.556 13.472C30.38 14.208 30.204 14.984 30.028 15.8C29.852 16.6 29.7 17.392 29.572 18.176C29.46 18.944 29.404 19.632 29.404 20.24C29.404 20.72 29.46 21.152 29.572 21.536C29.7 21.904 29.892 22.2 30.148 22.424C29.252 23.208 28.3 23.6 27.292 23.6Z"/>
<path d="M41.1567 23.6C39.6527 23.6 38.4527 23.48 37.5567 23.24C36.6767 23.016 36.0447 22.704 35.6607 22.304C35.2767 21.904 35.0847 21.464 35.0847 20.984C35.0847 20.616 35.1807 20.192 35.3727 19.712C35.5807 19.232 35.8767 18.776 36.2607 18.344C36.5327 18.712 36.8927 19.056 37.3407 19.376C37.8047 19.68 38.3087 19.928 38.8527 20.12C39.3967 20.296 39.9247 20.384 40.4367 20.384C40.9967 20.384 41.5007 20.256 41.9487 20C42.3967 19.728 42.6927 19.272 42.8367 18.632C40.3727 18.344 38.6047 17.8 37.5327 17C36.4607 16.184 35.9247 15.056 35.9247 13.616C35.9247 12.704 36.1407 11.928 36.5727 11.288C37.0047 10.648 37.5807 10.136 38.3007 9.752C39.0367 9.352 39.8687 9.064 40.7967 8.888C41.7407 8.696 42.7167 8.6 43.7247 8.6C44.6687 8.6 45.5087 8.728 46.2447 8.984C46.9807 9.224 47.5567 9.552 47.9727 9.968C48.3887 10.384 48.5967 10.864 48.5967 11.408C48.5967 12.176 48.3167 12.76 47.7567 13.16C47.2127 13.56 46.5887 13.76 45.8847 13.76C45.4047 13.76 44.9007 13.6 44.3727 13.28C43.8447 12.96 43.4207 12.464 43.1007 11.792C42.5087 11.968 42.0367 12.224 41.6847 12.56C41.3327 12.88 41.0207 13.344 40.7487 13.952C42.5727 14.224 44.0207 14.568 45.0927 14.984C46.1647 15.4 46.9327 15.928 47.3967 16.568C47.8767 17.192 48.1167 17.968 48.1167 18.896C48.1167 19.632 47.9487 20.272 47.6127 20.816C47.2927 21.36 46.8687 21.808 46.3407 22.16C45.8127 22.512 45.2367 22.792 44.6127 23C43.9887 23.224 43.3727 23.376 42.7647 23.456C42.1567 23.552 41.6207 23.6 41.1567 23.6Z"/>
<path d="M56.9146 23.6C56.0186 23.6 55.2266 23.368 54.5386 22.904C53.8666 22.44 53.3466 21.784 52.9786 20.936C52.6106 20.088 52.4266 19.096 52.4266 17.96C52.4266 16.632 52.6586 15.4 53.1226 14.264C53.6026 13.128 54.2586 12.136 55.0906 11.288C55.9386 10.44 56.9306 9.784 58.0666 9.32C59.2026 8.84 60.4346 8.6 61.7626 8.6C62.1466 8.6 62.4746 8.616 62.7466 8.648C63.0346 8.664 63.3386 8.712 63.6586 8.792C63.7546 9.24 63.8106 9.632 63.8266 9.968C64.1946 9.728 64.6026 9.544 65.0506 9.416C65.4986 9.272 65.9146 9.2 66.2986 9.2C67.4666 9.2 68.0506 9.832 68.0506 11.096C68.0506 11.512 67.9706 12.08 67.8106 12.8C67.6666 13.504 67.4906 14.288 67.2826 15.152C67.0906 16 66.9146 16.872 66.7546 17.768C66.6106 18.648 66.5386 19.472 66.5386 20.24C66.5386 21.28 66.7866 22.008 67.2826 22.424C66.3866 23.208 65.4346 23.6 64.4266 23.6C63.4986 23.6 62.8106 23.312 62.3626 22.736C61.9306 22.16 61.7146 21.264 61.7146 20.048L61.4746 19.928C61.0426 21.08 60.4186 21.984 59.6026 22.64C58.8026 23.28 57.9066 23.6 56.9146 23.6ZM58.8106 19.232C59.4346 19.232 60.0426 19.008 60.6346 18.56C61.2266 18.112 61.7226 17.496 62.1226 16.712C62.1866 16.088 62.2506 15.504 62.3146 14.96C62.3946 14.4 62.4906 13.808 62.6026 13.184C62.7306 12.56 62.8826 11.824 63.0586 10.976C62.2426 10.976 61.4666 11.136 60.7306 11.456C60.0106 11.76 59.3626 12.184 58.7866 12.728C58.2106 13.272 57.7546 13.896 57.4186 14.6C57.0986 15.288 56.9386 16.016 56.9386 16.784C56.9386 17.568 57.0986 18.176 57.4186 18.608C57.7546 19.024 58.2186 19.232 58.8106 19.232Z"/>
<path d="M75.0904 23.6C74.1144 23.6 73.4184 23.344 73.0024 22.832C72.5864 22.32 72.3784 21.584 72.3784 20.624C72.3784 20.288 72.4264 19.776 72.5224 19.088C72.6184 18.384 72.7384 17.608 72.8824 16.76C73.0424 15.896 73.2104 15.032 73.3864 14.168C73.5624 13.304 73.7304 12.536 73.8904 11.864L72.6424 9.944C73.4744 9.576 74.2424 9.264 74.9464 9.008C75.6664 8.736 76.3064 8.6 76.8664 8.6C77.2824 8.6 77.5864 8.744 77.7784 9.032C77.9704 9.32 78.0664 9.688 78.0664 10.136C78.0664 10.648 77.9784 11.224 77.8024 11.864C77.6264 12.488 77.4504 13.08 77.2744 13.64L77.5144 13.76C78.0744 12.112 78.7064 10.84 79.4104 9.944C80.1304 9.048 80.9304 8.6 81.8104 8.6C82.3864 8.6 82.8504 8.728 83.2024 8.984C83.5544 9.224 83.8104 9.528 83.9704 9.896C84.1464 10.248 84.2344 10.592 84.2344 10.928C84.2344 11.456 84.0984 11.968 83.8264 12.464C83.5704 12.944 83.1544 13.344 82.5784 13.664C82.0024 13.968 81.2424 14.12 80.2984 14.12C79.9304 14.12 79.5704 14.2 79.2184 14.36C78.8664 14.52 78.5464 14.824 78.2584 15.272C77.9704 15.704 77.7384 16.32 77.5624 17.12C77.4024 17.92 77.3224 18.96 77.3224 20.24C77.3224 21.232 77.4904 21.96 77.8264 22.424C76.8344 23.208 75.9224 23.6 75.0904 23.6Z"/>
<path d="M102.717 23.6C101.277 23.6 100.093 23.496 99.1649 23.288C98.2369 23.096 97.5169 22.824 97.0049 22.472C96.4929 22.12 96.1329 21.72 95.9249 21.272C95.7329 20.808 95.6369 20.32 95.6369 19.808C95.6369 19.328 95.7089 18.848 95.8529 18.368C96.0129 17.888 96.2849 17.392 96.6689 16.88C96.8929 17.344 97.2609 17.792 97.7729 18.224C98.2849 18.656 98.8609 19.008 99.5009 19.28C100.157 19.552 100.797 19.688 101.421 19.688C102.253 19.688 102.941 19.56 103.485 19.304C104.045 19.032 104.445 18.616 104.685 18.056C101.965 17.688 99.9249 16.936 98.5649 15.8C97.2049 14.648 96.5249 13.296 96.5249 11.744C96.5249 10.832 96.7089 10.032 97.0769 9.344C97.4609 8.656 97.9649 8.08 98.5889 7.616C99.2129 7.136 99.8929 6.752 100.629 6.464C101.365 6.16 102.093 5.944 102.813 5.816C103.533 5.672 104.173 5.6 104.733 5.6C106.765 5.6 108.325 5.84 109.413 6.32C110.517 6.784 111.069 7.608 111.069 8.792C111.069 9.48 110.909 10.056 110.589 10.52C110.285 10.984 109.877 11.336 109.365 11.576C108.869 11.8 108.325 11.912 107.733 11.912C107.029 11.912 106.341 11.712 105.669 11.312C104.997 10.896 104.525 10.32 104.253 9.584C103.693 9.584 103.141 9.776 102.597 10.16C102.053 10.528 101.701 11.04 101.541 11.696C103.669 12.208 105.381 12.776 106.677 13.4C107.989 14.024 108.941 14.728 109.533 15.512C110.125 16.296 110.421 17.192 110.421 18.2C110.421 19.368 110.077 20.352 109.389 21.152C108.701 21.952 107.773 22.56 106.605 22.976C105.453 23.392 104.157 23.6 102.717 23.6Z"/>
<path d="M121.112 23.6C119.704 23.6 118.488 23.336 117.464 22.808C116.456 22.264 115.68 21.52 115.136 20.576C114.592 19.632 114.32 18.536 114.32 17.288C114.32 15.56 114.696 14.048 115.448 12.752C116.216 11.44 117.264 10.424 118.592 9.704C119.92 8.968 121.432 8.6 123.128 8.6C123.4 8.6 123.672 8.616 123.944 8.648C124.232 8.664 124.536 8.712 124.856 8.792C124.936 9.016 125 9.288 125.048 9.608C125.096 9.912 125.128 10.24 125.144 10.592C125.288 10.544 125.44 10.504 125.6 10.472C125.776 10.44 125.96 10.424 126.152 10.424C126.712 10.424 127.24 10.576 127.736 10.88C128.232 11.168 128.64 11.624 128.96 12.248C129.28 12.872 129.44 13.664 129.44 14.624C129.44 16.048 129.2 17.32 128.72 18.44C128.256 19.544 127.624 20.48 126.824 21.248C126.024 22.016 125.128 22.6 124.136 23C123.16 23.4 122.152 23.6 121.112 23.6ZM121.856 20.648C122.224 20.648 122.608 20.56 123.008 20.384C123.408 20.208 123.8 19.888 124.184 19.424C124.568 18.96 124.888 18.304 125.144 17.456C124.456 17.024 123.96 16.496 123.656 15.872C123.352 15.232 123.2 14.528 123.2 13.76C123.2 13.536 123.24 13.248 123.32 12.896C123.4 12.544 123.536 12.184 123.728 11.816C123.936 11.448 124.216 11.144 124.568 10.904C123.464 11.128 122.56 11.464 121.856 11.912C121.152 12.36 120.6 12.88 120.2 13.472C119.816 14.048 119.544 14.648 119.384 15.272C119.24 15.88 119.168 16.464 119.168 17.024C119.168 17.664 119.272 18.264 119.48 18.824C119.688 19.368 119.992 19.808 120.392 20.144C120.792 20.48 121.28 20.648 121.856 20.648Z"/>
<path d="M140.189 23.6C138.797 23.6 137.589 23.336 136.565 22.808C135.557 22.264 134.773 21.52 134.213 20.576C133.669 19.632 133.397 18.536 133.397 17.288C133.397 15.992 133.629 14.816 134.093 13.76C134.557 12.688 135.213 11.768 136.061 11C136.909 10.232 137.893 9.64 139.013 9.224C140.149 8.808 141.373 8.6 142.685 8.6C144.109 8.6 145.205 8.872 145.973 9.416C146.757 9.944 147.149 10.608 147.149 11.408C147.149 12.176 146.869 12.76 146.309 13.16C145.765 13.56 145.141 13.76 144.437 13.76C143.957 13.76 143.453 13.6 142.925 13.28C142.397 12.96 141.973 12.464 141.653 11.792C140.949 12.08 140.349 12.528 139.853 13.136C139.373 13.728 139.005 14.392 138.749 15.128C138.509 15.848 138.389 16.56 138.389 17.264C138.389 18.208 138.589 19.024 138.989 19.712C139.389 20.384 139.981 20.72 140.765 20.72C141.309 20.72 141.805 20.512 142.253 20.096C142.701 19.664 142.925 18.984 142.925 18.056C144.013 18.056 144.869 18.176 145.493 18.416C146.117 18.656 146.429 19.088 146.429 19.712C146.429 20.288 146.173 20.88 145.661 21.488C145.149 22.08 144.429 22.584 143.501 23C142.573 23.4 141.469 23.6 140.189 23.6Z"/>
<path d="M155.373 7.04C154.637 7.04 154.029 6.88 153.549 6.56C153.069 6.24 152.829 5.808 152.829 5.264C152.829 4.736 153.005 4.304 153.357 3.968C153.709 3.616 154.133 3.352 154.629 3.176C155.141 3 155.621 2.912 156.069 2.912C156.805 2.912 157.413 3.072 157.893 3.392C158.373 3.696 158.613 4.128 158.613 4.688C158.613 5.152 158.461 5.568 158.157 5.936C157.853 6.288 157.453 6.56 156.957 6.752C156.477 6.944 155.949 7.04 155.373 7.04ZM153.933 23.6C152.909 23.6 152.181 23.344 151.749 22.832C151.317 22.32 151.101 21.584 151.101 20.624C151.101 20.272 151.149 19.784 151.245 19.16C151.341 18.52 151.469 17.816 151.629 17.048C151.789 16.264 151.957 15.472 152.133 14.672C152.309 13.872 152.477 13.12 152.637 12.416L151.293 10.4C152.141 9.888 152.949 9.464 153.717 9.128C154.485 8.776 155.253 8.6 156.021 8.6C156.693 8.6 157.157 8.744 157.413 9.032C157.685 9.32 157.821 9.768 157.821 10.376C157.821 10.616 157.757 11.008 157.629 11.552C157.517 12.096 157.373 12.736 157.197 13.472C157.021 14.208 156.845 14.984 156.669 15.8C156.493 16.6 156.341 17.392 156.213 18.176C156.101 18.944 156.045 19.632 156.045 20.24C156.045 20.72 156.101 21.152 156.213 21.536C156.341 21.904 156.533 22.2 156.789 22.424C155.893 23.208 154.941 23.6 153.933 23.6Z"/>
<path d="M168.71 23.6C167.222 23.6 165.966 23.336 164.942 22.808C163.918 22.28 163.142 21.544 162.614 20.6C162.102 19.64 161.846 18.536 161.846 17.288C161.846 15.992 162.078 14.816 162.542 13.76C163.022 12.688 163.686 11.768 164.534 11C165.382 10.232 166.366 9.64 167.486 9.224C168.622 8.808 169.846 8.6 171.158 8.6C172.71 8.6 173.854 8.944 174.59 9.632C175.326 10.32 175.694 11.184 175.694 12.224C175.694 13.12 175.398 13.968 174.806 14.768C174.23 15.552 173.294 16.192 171.998 16.688C170.702 17.168 168.974 17.416 166.814 17.432C166.862 18.456 167.094 19.264 167.51 19.856C167.942 20.432 168.478 20.72 169.118 20.72C169.438 20.72 169.774 20.648 170.126 20.504C170.478 20.344 170.774 20.072 171.014 19.688C171.254 19.288 171.374 18.744 171.374 18.056C172.462 18.056 173.318 18.176 173.942 18.416C174.566 18.656 174.878 19.088 174.878 19.712C174.878 20.288 174.63 20.88 174.134 21.488C173.638 22.08 172.926 22.584 171.998 23C171.086 23.4 169.99 23.6 168.71 23.6ZM167.03 15.512C168.198 15.416 169.134 15.2 169.838 14.864C170.542 14.528 171.054 14.144 171.374 13.712C171.694 13.28 171.854 12.88 171.854 12.512C171.854 12.192 171.758 11.928 171.566 11.72C171.374 11.512 171.102 11.408 170.75 11.408C170.174 11.408 169.638 11.608 169.142 12.008C168.646 12.408 168.214 12.928 167.846 13.568C167.494 14.192 167.222 14.84 167.03 15.512Z"/>
<path d="M183.907 23.6C182.883 23.6 182.155 23.296 181.723 22.688C181.291 22.08 181.075 21.152 181.075 19.904C181.075 19.552 181.115 19.056 181.195 18.416C181.275 17.76 181.379 17.032 181.507 16.232C181.651 15.432 181.787 14.64 181.915 13.856C181.579 13.92 181.251 13.992 180.931 14.072C180.627 14.152 180.339 14.24 180.067 14.336C180.003 14.096 179.955 13.856 179.923 13.616C179.907 13.376 179.899 13.2 179.899 13.088C179.899 12.256 180.139 11.656 180.619 11.288C181.115 10.904 181.707 10.712 182.395 10.712C182.395 10.344 182.347 9.936 182.251 9.488C182.155 9.04 181.987 8.544 181.747 8C182.419 7.504 183.091 7.088 183.763 6.752C184.435 6.416 185.179 6.248 185.995 6.248C186.699 6.248 187.187 6.384 187.459 6.656C187.731 6.912 187.867 7.344 187.867 7.952C187.867 8.256 187.835 8.616 187.771 9.032C187.707 9.448 187.627 9.904 187.531 10.4C187.883 10.352 188.219 10.296 188.539 10.232C188.859 10.152 189.171 10.072 189.475 9.992C189.539 10.168 189.579 10.352 189.595 10.544C189.627 10.72 189.643 10.896 189.643 11.072C189.643 11.712 189.443 12.272 189.043 12.752C188.659 13.216 188.059 13.448 187.243 13.448H186.883C186.659 14.472 186.459 15.52 186.283 16.592C186.107 17.664 186.019 18.664 186.019 19.592C186.019 20.216 186.075 20.776 186.187 21.272C186.315 21.752 186.507 22.136 186.763 22.424C185.867 23.208 184.915 23.6 183.907 23.6Z"/>
<path d="M196.713 28.64C195.609 28.64 194.681 28.4 193.929 27.92C193.177 27.44 192.801 26.768 192.801 25.904C192.801 25.552 192.873 25.176 193.017 24.776C193.161 24.376 193.385 23.952 193.689 23.504C194.057 24.032 194.497 24.432 195.009 24.704C195.521 24.992 196.041 25.136 196.569 25.136C197.193 25.136 197.793 24.928 198.369 24.512C198.945 24.096 199.409 23.432 199.761 22.52C199.361 22.664 198.985 22.768 198.633 22.832C198.281 22.896 197.945 22.928 197.625 22.928C196.793 22.928 196.121 22.712 195.609 22.28C195.097 21.832 194.801 21.192 194.721 20.36C194.609 19.304 194.537 18.208 194.505 17.072C194.473 15.936 194.409 14.904 194.313 13.976C194.201 12.888 193.969 11.984 193.617 11.264C193.265 10.544 192.857 10 192.393 9.632C192.777 9.28 193.177 9.024 193.593 8.864C194.025 8.688 194.569 8.6 195.225 8.6C196.025 8.6 196.673 8.84 197.169 9.32C197.681 9.8 198.073 10.48 198.345 11.36C198.617 12.224 198.801 13.24 198.897 14.408C199.009 15.56 199.065 16.816 199.065 18.176C199.065 18.368 199.057 18.664 199.041 19.064C199.041 19.464 199.025 19.864 198.993 20.264H200.385C200.641 19.56 200.913 18.808 201.201 18.008C201.489 17.208 201.753 16.4 201.993 15.584C202.249 14.752 202.457 13.96 202.617 13.208C202.777 12.44 202.857 11.76 202.857 11.168C202.857 10.816 202.817 10.52 202.737 10.28C202.673 10.04 202.593 9.824 202.497 9.632C203.057 9.28 203.609 9.024 204.153 8.864C204.697 8.688 205.185 8.6 205.617 8.6C206.353 8.6 206.889 8.848 207.225 9.344C207.577 9.84 207.753 10.488 207.753 11.288C207.753 11.88 207.665 12.568 207.489 13.352C207.313 14.12 207.089 14.92 206.817 15.752C206.561 16.568 206.297 17.344 206.025 18.08C205.769 18.816 205.553 19.44 205.377 19.952C204.609 22.16 203.745 23.896 202.785 25.16C201.841 26.424 200.849 27.32 199.809 27.848C198.785 28.376 197.753 28.64 196.713 28.64Z"/>
</mask>
<path d="M10.8151 23.6C9.19907 23.6 8.05507 23.376 7.38307 22.928C6.71107 22.464 6.37507 21.712 6.37507 20.672C6.37507 19.68 6.37507 18.848 6.37507 18.176C6.39107 17.488 6.39907 16.848 6.39907 16.256C6.39907 15.344 6.36707 14.424 6.30307 13.496C6.23907 12.568 6.11107 11.68 5.91907 10.832C5.72707 9.984 5.43907 9.216 5.05507 8.528C4.67107 7.84 4.15907 7.28 3.51907 6.848C4.60707 6.016 5.85507 5.6 7.26307 5.6C8.23907 5.6 9.01507 5.88 9.59107 6.44C10.1671 7 10.5991 7.752 10.8871 8.696C11.1751 9.624 11.3591 10.656 11.4391 11.792C11.5351 12.912 11.5831 14.04 11.5831 15.176C11.5831 15.912 11.5671 16.624 11.5351 17.312C11.5191 18 11.5111 18.632 11.5111 19.208H12.1351C12.5031 18.408 12.8951 17.504 13.3111 16.496C13.7271 15.488 14.1191 14.464 14.4871 13.424C14.8551 12.384 15.1511 11.4 15.3751 10.472C15.6151 9.544 15.7351 8.768 15.7351 8.144C15.7351 7.872 15.7111 7.632 15.6631 7.424C15.6151 7.2 15.5511 7.008 15.4711 6.848C16.0791 6.432 16.6471 6.12 17.1751 5.912C17.7191 5.704 18.2711 5.6 18.8311 5.6C19.7111 5.6 20.3271 5.856 20.6791 6.368C21.0471 6.864 21.2311 7.512 21.2311 8.312C21.2311 8.904 21.1191 9.6 20.8951 10.4C20.6711 11.2 20.3751 12.048 20.0071 12.944C19.6551 13.84 19.2791 14.736 18.8791 15.632C18.4791 16.512 18.0871 17.344 17.7031 18.128C17.3351 18.912 17.0311 19.592 16.7911 20.168L17.1271 21.488C16.6791 21.856 16.1111 22.2 15.4231 22.52C14.7511 22.84 14.0151 23.096 13.2151 23.288C12.4311 23.496 11.6311 23.6 10.8151 23.6Z" fill="white"/>
<path d="M28.732 7.04C27.996 7.04 27.388 6.88 26.908 6.56C26.428 6.24 26.188 5.808 26.188 5.264C26.188 4.736 26.364 4.304 26.716 3.968C27.068 3.616 27.492 3.352 27.988 3.176C28.5 3 28.98 2.912 29.428 2.912C30.164 2.912 30.772 3.072 31.252 3.392C31.732 3.696 31.972 4.128 31.972 4.688C31.972 5.152 31.82 5.568 31.516 5.936C31.212 6.288 30.812 6.56 30.316 6.752C29.836 6.944 29.308 7.04 28.732 7.04ZM27.292 23.6C26.268 23.6 25.54 23.344 25.108 22.832C24.676 22.32 24.46 21.584 24.46 20.624C24.46 20.272 24.508 19.784 24.604 19.16C24.7 18.52 24.828 17.816 24.988 17.048C25.148 16.264 25.316 15.472 25.492 14.672C25.668 13.872 25.836 13.12 25.996 12.416L24.652 10.4C25.5 9.888 26.308 9.464 27.076 9.128C27.844 8.776 28.612 8.6 29.38 8.6C30.052 8.6 30.516 8.744 30.772 9.032C31.044 9.32 31.18 9.768 31.18 10.376C31.18 10.616 31.116 11.008 30.988 11.552C30.876 12.096 30.732 12.736 30.556 13.472C30.38 14.208 30.204 14.984 30.028 15.8C29.852 16.6 29.7 17.392 29.572 18.176C29.46 18.944 29.404 19.632 29.404 20.24C29.404 20.72 29.46 21.152 29.572 21.536C29.7 21.904 29.892 22.2 30.148 22.424C29.252 23.208 28.3 23.6 27.292 23.6Z" fill="white"/>
<path d="M41.1567 23.6C39.6527 23.6 38.4527 23.48 37.5567 23.24C36.6767 23.016 36.0447 22.704 35.6607 22.304C35.2767 21.904 35.0847 21.464 35.0847 20.984C35.0847 20.616 35.1807 20.192 35.3727 19.712C35.5807 19.232 35.8767 18.776 36.2607 18.344C36.5327 18.712 36.8927 19.056 37.3407 19.376C37.8047 19.68 38.3087 19.928 38.8527 20.12C39.3967 20.296 39.9247 20.384 40.4367 20.384C40.9967 20.384 41.5007 20.256 41.9487 20C42.3967 19.728 42.6927 19.272 42.8367 18.632C40.3727 18.344 38.6047 17.8 37.5327 17C36.4607 16.184 35.9247 15.056 35.9247 13.616C35.9247 12.704 36.1407 11.928 36.5727 11.288C37.0047 10.648 37.5807 10.136 38.3007 9.752C39.0367 9.352 39.8687 9.064 40.7967 8.888C41.7407 8.696 42.7167 8.6 43.7247 8.6C44.6687 8.6 45.5087 8.728 46.2447 8.984C46.9807 9.224 47.5567 9.552 47.9727 9.968C48.3887 10.384 48.5967 10.864 48.5967 11.408C48.5967 12.176 48.3167 12.76 47.7567 13.16C47.2127 13.56 46.5887 13.76 45.8847 13.76C45.4047 13.76 44.9007 13.6 44.3727 13.28C43.8447 12.96 43.4207 12.464 43.1007 11.792C42.5087 11.968 42.0367 12.224 41.6847 12.56C41.3327 12.88 41.0207 13.344 40.7487 13.952C42.5727 14.224 44.0207 14.568 45.0927 14.984C46.1647 15.4 46.9327 15.928 47.3967 16.568C47.8767 17.192 48.1167 17.968 48.1167 18.896C48.1167 19.632 47.9487 20.272 47.6127 20.816C47.2927 21.36 46.8687 21.808 46.3407 22.16C45.8127 22.512 45.2367 22.792 44.6127 23C43.9887 23.224 43.3727 23.376 42.7647 23.456C42.1567 23.552 41.6207 23.6 41.1567 23.6Z" fill="white"/>
<path d="M56.9146 23.6C56.0186 23.6 55.2266 23.368 54.5386 22.904C53.8666 22.44 53.3466 21.784 52.9786 20.936C52.6106 20.088 52.4266 19.096 52.4266 17.96C52.4266 16.632 52.6586 15.4 53.1226 14.264C53.6026 13.128 54.2586 12.136 55.0906 11.288C55.9386 10.44 56.9306 9.784 58.0666 9.32C59.2026 8.84 60.4346 8.6 61.7626 8.6C62.1466 8.6 62.4746 8.616 62.7466 8.648C63.0346 8.664 63.3386 8.712 63.6586 8.792C63.7546 9.24 63.8106 9.632 63.8266 9.968C64.1946 9.728 64.6026 9.544 65.0506 9.416C65.4986 9.272 65.9146 9.2 66.2986 9.2C67.4666 9.2 68.0506 9.832 68.0506 11.096C68.0506 11.512 67.9706 12.08 67.8106 12.8C67.6666 13.504 67.4906 14.288 67.2826 15.152C67.0906 16 66.9146 16.872 66.7546 17.768C66.6106 18.648 66.5386 19.472 66.5386 20.24C66.5386 21.28 66.7866 22.008 67.2826 22.424C66.3866 23.208 65.4346 23.6 64.4266 23.6C63.4986 23.6 62.8106 23.312 62.3626 22.736C61.9306 22.16 61.7146 21.264 61.7146 20.048L61.4746 19.928C61.0426 21.08 60.4186 21.984 59.6026 22.64C58.8026 23.28 57.9066 23.6 56.9146 23.6ZM58.8106 19.232C59.4346 19.232 60.0426 19.008 60.6346 18.56C61.2266 18.112 61.7226 17.496 62.1226 16.712C62.1866 16.088 62.2506 15.504 62.3146 14.96C62.3946 14.4 62.4906 13.808 62.6026 13.184C62.7306 12.56 62.8826 11.824 63.0586 10.976C62.2426 10.976 61.4666 11.136 60.7306 11.456C60.0106 11.76 59.3626 12.184 58.7866 12.728C58.2106 13.272 57.7546 13.896 57.4186 14.6C57.0986 15.288 56.9386 16.016 56.9386 16.784C56.9386 17.568 57.0986 18.176 57.4186 18.608C57.7546 19.024 58.2186 19.232 58.8106 19.232Z" fill="white"/>
<path d="M75.0904 23.6C74.1144 23.6 73.4184 23.344 73.0024 22.832C72.5864 22.32 72.3784 21.584 72.3784 20.624C72.3784 20.288 72.4264 19.776 72.5224 19.088C72.6184 18.384 72.7384 17.608 72.8824 16.76C73.0424 15.896 73.2104 15.032 73.3864 14.168C73.5624 13.304 73.7304 12.536 73.8904 11.864L72.6424 9.944C73.4744 9.576 74.2424 9.264 74.9464 9.008C75.6664 8.736 76.3064 8.6 76.8664 8.6C77.2824 8.6 77.5864 8.744 77.7784 9.032C77.9704 9.32 78.0664 9.688 78.0664 10.136C78.0664 10.648 77.9784 11.224 77.8024 11.864C77.6264 12.488 77.4504 13.08 77.2744 13.64L77.5144 13.76C78.0744 12.112 78.7064 10.84 79.4104 9.944C80.1304 9.048 80.9304 8.6 81.8104 8.6C82.3864 8.6 82.8504 8.728 83.2024 8.984C83.5544 9.224 83.8104 9.528 83.9704 9.896C84.1464 10.248 84.2344 10.592 84.2344 10.928C84.2344 11.456 84.0984 11.968 83.8264 12.464C83.5704 12.944 83.1544 13.344 82.5784 13.664C82.0024 13.968 81.2424 14.12 80.2984 14.12C79.9304 14.12 79.5704 14.2 79.2184 14.36C78.8664 14.52 78.5464 14.824 78.2584 15.272C77.9704 15.704 77.7384 16.32 77.5624 17.12C77.4024 17.92 77.3224 18.96 77.3224 20.24C77.3224 21.232 77.4904 21.96 77.8264 22.424C76.8344 23.208 75.9224 23.6 75.0904 23.6Z" fill="white"/>
<path d="M102.717 23.6C101.277 23.6 100.093 23.496 99.1649 23.288C98.2369 23.096 97.5169 22.824 97.0049 22.472C96.4929 22.12 96.1329 21.72 95.9249 21.272C95.7329 20.808 95.6369 20.32 95.6369 19.808C95.6369 19.328 95.7089 18.848 95.8529 18.368C96.0129 17.888 96.2849 17.392 96.6689 16.88C96.8929 17.344 97.2609 17.792 97.7729 18.224C98.2849 18.656 98.8609 19.008 99.5009 19.28C100.157 19.552 100.797 19.688 101.421 19.688C102.253 19.688 102.941 19.56 103.485 19.304C104.045 19.032 104.445 18.616 104.685 18.056C101.965 17.688 99.9249 16.936 98.5649 15.8C97.2049 14.648 96.5249 13.296 96.5249 11.744C96.5249 10.832 96.7089 10.032 97.0769 9.344C97.4609 8.656 97.9649 8.08 98.5889 7.616C99.2129 7.136 99.8929 6.752 100.629 6.464C101.365 6.16 102.093 5.944 102.813 5.816C103.533 5.672 104.173 5.6 104.733 5.6C106.765 5.6 108.325 5.84 109.413 6.32C110.517 6.784 111.069 7.608 111.069 8.792C111.069 9.48 110.909 10.056 110.589 10.52C110.285 10.984 109.877 11.336 109.365 11.576C108.869 11.8 108.325 11.912 107.733 11.912C107.029 11.912 106.341 11.712 105.669 11.312C104.997 10.896 104.525 10.32 104.253 9.584C103.693 9.584 103.141 9.776 102.597 10.16C102.053 10.528 101.701 11.04 101.541 11.696C103.669 12.208 105.381 12.776 106.677 13.4C107.989 14.024 108.941 14.728 109.533 15.512C110.125 16.296 110.421 17.192 110.421 18.2C110.421 19.368 110.077 20.352 109.389 21.152C108.701 21.952 107.773 22.56 106.605 22.976C105.453 23.392 104.157 23.6 102.717 23.6Z" fill="white"/>
<path d="M121.112 23.6C119.704 23.6 118.488 23.336 117.464 22.808C116.456 22.264 115.68 21.52 115.136 20.576C114.592 19.632 114.32 18.536 114.32 17.288C114.32 15.56 114.696 14.048 115.448 12.752C116.216 11.44 117.264 10.424 118.592 9.704C119.92 8.968 121.432 8.6 123.128 8.6C123.4 8.6 123.672 8.616 123.944 8.648C124.232 8.664 124.536 8.712 124.856 8.792C124.936 9.016 125 9.288 125.048 9.608C125.096 9.912 125.128 10.24 125.144 10.592C125.288 10.544 125.44 10.504 125.6 10.472C125.776 10.44 125.96 10.424 126.152 10.424C126.712 10.424 127.24 10.576 127.736 10.88C128.232 11.168 128.64 11.624 128.96 12.248C129.28 12.872 129.44 13.664 129.44 14.624C129.44 16.048 129.2 17.32 128.72 18.44C128.256 19.544 127.624 20.48 126.824 21.248C126.024 22.016 125.128 22.6 124.136 23C123.16 23.4 122.152 23.6 121.112 23.6ZM121.856 20.648C122.224 20.648 122.608 20.56 123.008 20.384C123.408 20.208 123.8 19.888 124.184 19.424C124.568 18.96 124.888 18.304 125.144 17.456C124.456 17.024 123.96 16.496 123.656 15.872C123.352 15.232 123.2 14.528 123.2 13.76C123.2 13.536 123.24 13.248 123.32 12.896C123.4 12.544 123.536 12.184 123.728 11.816C123.936 11.448 124.216 11.144 124.568 10.904C123.464 11.128 122.56 11.464 121.856 11.912C121.152 12.36 120.6 12.88 120.2 13.472C119.816 14.048 119.544 14.648 119.384 15.272C119.24 15.88 119.168 16.464 119.168 17.024C119.168 17.664 119.272 18.264 119.48 18.824C119.688 19.368 119.992 19.808 120.392 20.144C120.792 20.48 121.28 20.648 121.856 20.648Z" fill="white"/>
<path d="M140.189 23.6C138.797 23.6 137.589 23.336 136.565 22.808C135.557 22.264 134.773 21.52 134.213 20.576C133.669 19.632 133.397 18.536 133.397 17.288C133.397 15.992 133.629 14.816 134.093 13.76C134.557 12.688 135.213 11.768 136.061 11C136.909 10.232 137.893 9.64 139.013 9.224C140.149 8.808 141.373 8.6 142.685 8.6C144.109 8.6 145.205 8.872 145.973 9.416C146.757 9.944 147.149 10.608 147.149 11.408C147.149 12.176 146.869 12.76 146.309 13.16C145.765 13.56 145.141 13.76 144.437 13.76C143.957 13.76 143.453 13.6 142.925 13.28C142.397 12.96 141.973 12.464 141.653 11.792C140.949 12.08 140.349 12.528 139.853 13.136C139.373 13.728 139.005 14.392 138.749 15.128C138.509 15.848 138.389 16.56 138.389 17.264C138.389 18.208 138.589 19.024 138.989 19.712C139.389 20.384 139.981 20.72 140.765 20.72C141.309 20.72 141.805 20.512 142.253 20.096C142.701 19.664 142.925 18.984 142.925 18.056C144.013 18.056 144.869 18.176 145.493 18.416C146.117 18.656 146.429 19.088 146.429 19.712C146.429 20.288 146.173 20.88 145.661 21.488C145.149 22.08 144.429 22.584 143.501 23C142.573 23.4 141.469 23.6 140.189 23.6Z" fill="white"/>
<path d="M155.373 7.04C154.637 7.04 154.029 6.88 153.549 6.56C153.069 6.24 152.829 5.808 152.829 5.264C152.829 4.736 153.005 4.304 153.357 3.968C153.709 3.616 154.133 3.352 154.629 3.176C155.141 3 155.621 2.912 156.069 2.912C156.805 2.912 157.413 3.072 157.893 3.392C158.373 3.696 158.613 4.128 158.613 4.688C158.613 5.152 158.461 5.568 158.157 5.936C157.853 6.288 157.453 6.56 156.957 6.752C156.477 6.944 155.949 7.04 155.373 7.04ZM153.933 23.6C152.909 23.6 152.181 23.344 151.749 22.832C151.317 22.32 151.101 21.584 151.101 20.624C151.101 20.272 151.149 19.784 151.245 19.16C151.341 18.52 151.469 17.816 151.629 17.048C151.789 16.264 151.957 15.472 152.133 14.672C152.309 13.872 152.477 13.12 152.637 12.416L151.293 10.4C152.141 9.888 152.949 9.464 153.717 9.128C154.485 8.776 155.253 8.6 156.021 8.6C156.693 8.6 157.157 8.744 157.413 9.032C157.685 9.32 157.821 9.768 157.821 10.376C157.821 10.616 157.757 11.008 157.629 11.552C157.517 12.096 157.373 12.736 157.197 13.472C157.021 14.208 156.845 14.984 156.669 15.8C156.493 16.6 156.341 17.392 156.213 18.176C156.101 18.944 156.045 19.632 156.045 20.24C156.045 20.72 156.101 21.152 156.213 21.536C156.341 21.904 156.533 22.2 156.789 22.424C155.893 23.208 154.941 23.6 153.933 23.6Z" fill="white"/>
<path d="M168.71 23.6C167.222 23.6 165.966 23.336 164.942 22.808C163.918 22.28 163.142 21.544 162.614 20.6C162.102 19.64 161.846 18.536 161.846 17.288C161.846 15.992 162.078 14.816 162.542 13.76C163.022 12.688 163.686 11.768 164.534 11C165.382 10.232 166.366 9.64 167.486 9.224C168.622 8.808 169.846 8.6 171.158 8.6C172.71 8.6 173.854 8.944 174.59 9.632C175.326 10.32 175.694 11.184 175.694 12.224C175.694 13.12 175.398 13.968 174.806 14.768C174.23 15.552 173.294 16.192 171.998 16.688C170.702 17.168 168.974 17.416 166.814 17.432C166.862 18.456 167.094 19.264 167.51 19.856C167.942 20.432 168.478 20.72 169.118 20.72C169.438 20.72 169.774 20.648 170.126 20.504C170.478 20.344 170.774 20.072 171.014 19.688C171.254 19.288 171.374 18.744 171.374 18.056C172.462 18.056 173.318 18.176 173.942 18.416C174.566 18.656 174.878 19.088 174.878 19.712C174.878 20.288 174.63 20.88 174.134 21.488C173.638 22.08 172.926 22.584 171.998 23C171.086 23.4 169.99 23.6 168.71 23.6ZM167.03 15.512C168.198 15.416 169.134 15.2 169.838 14.864C170.542 14.528 171.054 14.144 171.374 13.712C171.694 13.28 171.854 12.88 171.854 12.512C171.854 12.192 171.758 11.928 171.566 11.72C171.374 11.512 171.102 11.408 170.75 11.408C170.174 11.408 169.638 11.608 169.142 12.008C168.646 12.408 168.214 12.928 167.846 13.568C167.494 14.192 167.222 14.84 167.03 15.512Z" fill="white"/>
<path d="M183.907 23.6C182.883 23.6 182.155 23.296 181.723 22.688C181.291 22.08 181.075 21.152 181.075 19.904C181.075 19.552 181.115 19.056 181.195 18.416C181.275 17.76 181.379 17.032 181.507 16.232C181.651 15.432 181.787 14.64 181.915 13.856C181.579 13.92 181.251 13.992 180.931 14.072C180.627 14.152 180.339 14.24 180.067 14.336C180.003 14.096 179.955 13.856 179.923 13.616C179.907 13.376 179.899 13.2 179.899 13.088C179.899 12.256 180.139 11.656 180.619 11.288C181.115 10.904 181.707 10.712 182.395 10.712C182.395 10.344 182.347 9.936 182.251 9.488C182.155 9.04 181.987 8.544 181.747 8C182.419 7.504 183.091 7.088 183.763 6.752C184.435 6.416 185.179 6.248 185.995 6.248C186.699 6.248 187.187 6.384 187.459 6.656C187.731 6.912 187.867 7.344 187.867 7.952C187.867 8.256 187.835 8.616 187.771 9.032C187.707 9.448 187.627 9.904 187.531 10.4C187.883 10.352 188.219 10.296 188.539 10.232C188.859 10.152 189.171 10.072 189.475 9.992C189.539 10.168 189.579 10.352 189.595 10.544C189.627 10.72 189.643 10.896 189.643 11.072C189.643 11.712 189.443 12.272 189.043 12.752C188.659 13.216 188.059 13.448 187.243 13.448H186.883C186.659 14.472 186.459 15.52 186.283 16.592C186.107 17.664 186.019 18.664 186.019 19.592C186.019 20.216 186.075 20.776 186.187 21.272C186.315 21.752 186.507 22.136 186.763 22.424C185.867 23.208 184.915 23.6 183.907 23.6Z" fill="white"/>
<path d="M196.713 28.64C195.609 28.64 194.681 28.4 193.929 27.92C193.177 27.44 192.801 26.768 192.801 25.904C192.801 25.552 192.873 25.176 193.017 24.776C193.161 24.376 193.385 23.952 193.689 23.504C194.057 24.032 194.497 24.432 195.009 24.704C195.521 24.992 196.041 25.136 196.569 25.136C197.193 25.136 197.793 24.928 198.369 24.512C198.945 24.096 199.409 23.432 199.761 22.52C199.361 22.664 198.985 22.768 198.633 22.832C198.281 22.896 197.945 22.928 197.625 22.928C196.793 22.928 196.121 22.712 195.609 22.28C195.097 21.832 194.801 21.192 194.721 20.36C194.609 19.304 194.537 18.208 194.505 17.072C194.473 15.936 194.409 14.904 194.313 13.976C194.201 12.888 193.969 11.984 193.617 11.264C193.265 10.544 192.857 10 192.393 9.632C192.777 9.28 193.177 9.024 193.593 8.864C194.025 8.688 194.569 8.6 195.225 8.6C196.025 8.6 196.673 8.84 197.169 9.32C197.681 9.8 198.073 10.48 198.345 11.36C198.617 12.224 198.801 13.24 198.897 14.408C199.009 15.56 199.065 16.816 199.065 18.176C199.065 18.368 199.057 18.664 199.041 19.064C199.041 19.464 199.025 19.864 198.993 20.264H200.385C200.641 19.56 200.913 18.808 201.201 18.008C201.489 17.208 201.753 16.4 201.993 15.584C202.249 14.752 202.457 13.96 202.617 13.208C202.777 12.44 202.857 11.76 202.857 11.168C202.857 10.816 202.817 10.52 202.737 10.28C202.673 10.04 202.593 9.824 202.497 9.632C203.057 9.28 203.609 9.024 204.153 8.864C204.697 8.688 205.185 8.6 205.617 8.6C206.353 8.6 206.889 8.848 207.225 9.344C207.577 9.84 207.753 10.488 207.753 11.288C207.753 11.88 207.665 12.568 207.489 13.352C207.313 14.12 207.089 14.92 206.817 15.752C206.561 16.568 206.297 17.344 206.025 18.08C205.769 18.816 205.553 19.44 205.377 19.952C204.609 22.16 203.745 23.896 202.785 25.16C201.841 26.424 200.849 27.32 199.809 27.848C198.785 28.376 197.753 28.64 196.713 28.64Z" fill="white"/>
<path d="M10.8151 23.6C9.19907 23.6 8.05507 23.376 7.38307 22.928C6.71107 22.464 6.37507 21.712 6.37507 20.672C6.37507 19.68 6.37507 18.848 6.37507 18.176C6.39107 17.488 6.39907 16.848 6.39907 16.256C6.39907 15.344 6.36707 14.424 6.30307 13.496C6.23907 12.568 6.11107 11.68 5.91907 10.832C5.72707 9.984 5.43907 9.216 5.05507 8.528C4.67107 7.84 4.15907 7.28 3.51907 6.848C4.60707 6.016 5.85507 5.6 7.26307 5.6C8.23907 5.6 9.01507 5.88 9.59107 6.44C10.1671 7 10.5991 7.752 10.8871 8.696C11.1751 9.624 11.3591 10.656 11.4391 11.792C11.5351 12.912 11.5831 14.04 11.5831 15.176C11.5831 15.912 11.5671 16.624 11.5351 17.312C11.5191 18 11.5111 18.632 11.5111 19.208H12.1351C12.5031 18.408 12.8951 17.504 13.3111 16.496C13.7271 15.488 14.1191 14.464 14.4871 13.424C14.8551 12.384 15.1511 11.4 15.3751 10.472C15.6151 9.544 15.7351 8.768 15.7351 8.144C15.7351 7.872 15.7111 7.632 15.6631 7.424C15.6151 7.2 15.5511 7.008 15.4711 6.848C16.0791 6.432 16.6471 6.12 17.1751 5.912C17.7191 5.704 18.2711 5.6 18.8311 5.6C19.7111 5.6 20.3271 5.856 20.6791 6.368C21.0471 6.864 21.2311 7.512 21.2311 8.312C21.2311 8.904 21.1191 9.6 20.8951 10.4C20.6711 11.2 20.3751 12.048 20.0071 12.944C19.6551 13.84 19.2791 14.736 18.8791 15.632C18.4791 16.512 18.0871 17.344 17.7031 18.128C17.3351 18.912 17.0311 19.592 16.7911 20.168L17.1271 21.488C16.6791 21.856 16.1111 22.2 15.4231 22.52C14.7511 22.84 14.0151 23.096 13.2151 23.288C12.4311 23.496 11.6311 23.6 10.8151 23.6Z" stroke="#0F4F72" stroke-width="4" mask="url(#path-1-outside-1_11_5)"/>
<path d="M28.732 7.04C27.996 7.04 27.388 6.88 26.908 6.56C26.428 6.24 26.188 5.808 26.188 5.264C26.188 4.736 26.364 4.304 26.716 3.968C27.068 3.616 27.492 3.352 27.988 3.176C28.5 3 28.98 2.912 29.428 2.912C30.164 2.912 30.772 3.072 31.252 3.392C31.732 3.696 31.972 4.128 31.972 4.688C31.972 5.152 31.82 5.568 31.516 5.936C31.212 6.288 30.812 6.56 30.316 6.752C29.836 6.944 29.308 7.04 28.732 7.04ZM27.292 23.6C26.268 23.6 25.54 23.344 25.108 22.832C24.676 22.32 24.46 21.584 24.46 20.624C24.46 20.272 24.508 19.784 24.604 19.16C24.7 18.52 24.828 17.816 24.988 17.048C25.148 16.264 25.316 15.472 25.492 14.672C25.668 13.872 25.836 13.12 25.996 12.416L24.652 10.4C25.5 9.888 26.308 9.464 27.076 9.128C27.844 8.776 28.612 8.6 29.38 8.6C30.052 8.6 30.516 8.744 30.772 9.032C31.044 9.32 31.18 9.768 31.18 10.376C31.18 10.616 31.116 11.008 30.988 11.552C30.876 12.096 30.732 12.736 30.556 13.472C30.38 14.208 30.204 14.984 30.028 15.8C29.852 16.6 29.7 17.392 29.572 18.176C29.46 18.944 29.404 19.632 29.404 20.24C29.404 20.72 29.46 21.152 29.572 21.536C29.7 21.904 29.892 22.2 30.148 22.424C29.252 23.208 28.3 23.6 27.292 23.6Z" stroke="#0F4F72" stroke-width="4" mask="url(#path-1-outside-1_11_5)"/>
<path d="M41.1567 23.6C39.6527 23.6 38.4527 23.48 37.5567 23.24C36.6767 23.016 36.0447 22.704 35.6607 22.304C35.2767 21.904 35.0847 21.464 35.0847 20.984C35.0847 20.616 35.1807 20.192 35.3727 19.712C35.5807 19.232 35.8767 18.776 36.2607 18.344C36.5327 18.712 36.8927 19.056 37.3407 19.376C37.8047 19.68 38.3087 19.928 38.8527 20.12C39.3967 20.296 39.9247 20.384 40.4367 20.384C40.9967 20.384 41.5007 20.256 41.9487 20C42.3967 19.728 42.6927 19.272 42.8367 18.632C40.3727 18.344 38.6047 17.8 37.5327 17C36.4607 16.184 35.9247 15.056 35.9247 13.616C35.9247 12.704 36.1407 11.928 36.5727 11.288C37.0047 10.648 37.5807 10.136 38.3007 9.752C39.0367 9.352 39.8687 9.064 40.7967 8.888C41.7407 8.696 42.7167 8.6 43.7247 8.6C44.6687 8.6 45.5087 8.728 46.2447 8.984C46.9807 9.224 47.5567 9.552 47.9727 9.968C48.3887 10.384 48.5967 10.864 48.5967 11.408C48.5967 12.176 48.3167 12.76 47.7567 13.16C47.2127 13.56 46.5887 13.76 45.8847 13.76C45.4047 13.76 44.9007 13.6 44.3727 13.28C43.8447 12.96 43.4207 12.464 43.1007 11.792C42.5087 11.968 42.0367 12.224 41.6847 12.56C41.3327 12.88 41.0207 13.344 40.7487 13.952C42.5727 14.224 44.0207 14.568 45.0927 14.984C46.1647 15.4 46.9327 15.928 47.3967 16.568C47.8767 17.192 48.1167 17.968 48.1167 18.896C48.1167 19.632 47.9487 20.272 47.6127 20.816C47.2927 21.36 46.8687 21.808 46.3407 22.16C45.8127 22.512 45.2367 22.792 44.6127 23C43.9887 23.224 43.3727 23.376 42.7647 23.456C42.1567 23.552 41.6207 23.6 41.1567 23.6Z" stroke="#0F4F72" stroke-width="4" mask="url(#path-1-outside-1_11_5)"/>
<path d="M56.9146 23.6C56.0186 23.6 55.2266 23.368 54.5386 22.904C53.8666 22.44 53.3466 21.784 52.9786 20.936C52.6106 20.088 52.4266 19.096 52.4266 17.96C52.4266 16.632 52.6586 15.4 53.1226 14.264C53.6026 13.128 54.2586 12.136 55.0906 11.288C55.9386 10.44 56.9306 9.784 58.0666 9.32C59.2026 8.84 60.4346 8.6 61.7626 8.6C62.1466 8.6 62.4746 8.616 62.7466 8.648C63.0346 8.664 63.3386 8.712 63.6586 8.792C63.7546 9.24 63.8106 9.632 63.8266 9.968C64.1946 9.728 64.6026 9.544 65.0506 9.416C65.4986 9.272 65.9146 9.2 66.2986 9.2C67.4666 9.2 68.0506 9.832 68.0506 11.096C68.0506 11.512 67.9706 12.08 67.8106 12.8C67.6666 13.504 67.4906 14.288 67.2826 15.152C67.0906 16 66.9146 16.872 66.7546 17.768C66.6106 18.648 66.5386 19.472 66.5386 20.24C66.5386 21.28 66.7866 22.008 67.2826 22.424C66.3866 23.208 65.4346 23.6 64.4266 23.6C63.4986 23.6 62.8106 23.312 62.3626 22.736C61.9306 22.16 61.7146 21.264 61.7146 20.048L61.4746 19.928C61.0426 21.08 60.4186 21.984 59.6026 22.64C58.8026 23.28 57.9066 23.6 56.9146 23.6ZM58.8106 19.232C59.4346 19.232 60.0426 19.008 60.6346 18.56C61.2266 18.112 61.7226 17.496 62.1226 16.712C62.1866 16.088 62.2506 15.504 62.3146 14.96C62.3946 14.4 62.4906 13.808 62.6026 13.184C62.7306 12.56 62.8826 11.824 63.0586 10.976C62.2426 10.976 61.4666 11.136 60.7306 11.456C60.0106 11.76 59.3626 12.184 58.7866 12.728C58.2106 13.272 57.7546 13.896 57.4186 14.6C57.0986 15.288 56.9386 16.016 56.9386 16.784C56.9386 17.568 57.0986 18.176 57.4186 18.608C57.7546 19.024 58.2186 19.232 58.8106 19.232Z" stroke="#0F4F72" stroke-width="4" mask="url(#path-1-outside-1_11_5)"/>
<path d="M75.0904 23.6C74.1144 23.6 73.4184 23.344 73.0024 22.832C72.5864 22.32 72.3784 21.584 72.3784 20.624C72.3784 20.288 72.4264 19.776 72.5224 19.088C72.6184 18.384 72.7384 17.608 72.8824 16.76C73.0424 15.896 73.2104 15.032 73.3864 14.168C73.5624 13.304 73.7304 12.536 73.8904 11.864L72.6424 9.944C73.4744 9.576 74.2424 9.264 74.9464 9.008C75.6664 8.736 76.3064 8.6 76.8664 8.6C77.2824 8.6 77.5864 8.744 77.7784 9.032C77.9704 9.32 78.0664 9.688 78.0664 10.136C78.0664 10.648 77.9784 11.224 77.8024 11.864C77.6264 12.488 77.4504 13.08 77.2744 13.64L77.5144 13.76C78.0744 12.112 78.7064 10.84 79.4104 9.944C80.1304 9.048 80.9304 8.6 81.8104 8.6C82.3864 8.6 82.8504 8.728 83.2024 8.984C83.5544 9.224 83.8104 9.528 83.9704 9.896C84.1464 10.248 84.2344 10.592 84.2344 10.928C84.2344 11.456 84.0984 11.968 83.8264 12.464C83.5704 12.944 83.1544 13.344 82.5784 13.664C82.0024 13.968 81.2424 14.12 80.2984 14.12C79.9304 14.12 79.5704 14.2 79.2184 14.36C78.8664 14.52 78.5464 14.824 78.2584 15.272C77.9704 15.704 77.7384 16.32 77.5624 17.12C77.4024 17.92 77.3224 18.96 77.3224 20.24C77.3224 21.232 77.4904 21.96 77.8264 22.424C76.8344 23.208 75.9224 23.6 75.0904 23.6Z" stroke="#0F4F72" stroke-width="4" mask="url(#path-1-outside-1_11_5)"/>
<path d="M102.717 23.6C101.277 23.6 100.093 23.496 99.1649 23.288C98.2369 23.096 97.5169 22.824 97.0049 22.472C96.4929 22.12 96.1329 21.72 95.9249 21.272C95.7329 20.808 95.6369 20.32 95.6369 19.808C95.6369 19.328 95.7089 18.848 95.8529 18.368C96.0129 17.888 96.2849 17.392 96.6689 16.88C96.8929 17.344 97.2609 17.792 97.7729 18.224C98.2849 18.656 98.8609 19.008 99.5009 19.28C100.157 19.552 100.797 19.688 101.421 19.688C102.253 19.688 102.941 19.56 103.485 19.304C104.045 19.032 104.445 18.616 104.685 18.056C101.965 17.688 99.9249 16.936 98.5649 15.8C97.2049 14.648 96.5249 13.296 96.5249 11.744C96.5249 10.832 96.7089 10.032 97.0769 9.344C97.4609 8.656 97.9649 8.08 98.5889 7.616C99.2129 7.136 99.8929 6.752 100.629 6.464C101.365 6.16 102.093 5.944 102.813 5.816C103.533 5.672 104.173 5.6 104.733 5.6C106.765 5.6 108.325 5.84 109.413 6.32C110.517 6.784 111.069 7.608 111.069 8.792C111.069 9.48 110.909 10.056 110.589 10.52C110.285 10.984 109.877 11.336 109.365 11.576C108.869 11.8 108.325 11.912 107.733 11.912C107.029 11.912 106.341 11.712 105.669 11.312C104.997 10.896 104.525 10.32 104.253 9.584C103.693 9.584 103.141 9.776 102.597 10.16C102.053 10.528 101.701 11.04 101.541 11.696C103.669 12.208 105.381 12.776 106.677 13.4C107.989 14.024 108.941 14.728 109.533 15.512C110.125 16.296 110.421 17.192 110.421 18.2C110.421 19.368 110.077 20.352 109.389 21.152C108.701 21.952 107.773 22.56 106.605 22.976C105.453 23.392 104.157 23.6 102.717 23.6Z" stroke="#0F4F72" stroke-width="4" mask="url(#path-1-outside-1_11_5)"/>
<path d="M121.112 23.6C119.704 23.6 118.488 23.336 117.464 22.808C116.456 22.264 115.68 21.52 115.136 20.576C114.592 19.632 114.32 18.536 114.32 17.288C114.32 15.56 114.696 14.048 115.448 12.752C116.216 11.44 117.264 10.424 118.592 9.704C119.92 8.968 121.432 8.6 123.128 8.6C123.4 8.6 123.672 8.616 123.944 8.648C124.232 8.664 124.536 8.712 124.856 8.792C124.936 9.016 125 9.288 125.048 9.608C125.096 9.912 125.128 10.24 125.144 10.592C125.288 10.544 125.44 10.504 125.6 10.472C125.776 10.44 125.96 10.424 126.152 10.424C126.712 10.424 127.24 10.576 127.736 10.88C128.232 11.168 128.64 11.624 128.96 12.248C129.28 12.872 129.44 13.664 129.44 14.624C129.44 16.048 129.2 17.32 128.72 18.44C128.256 19.544 127.624 20.48 126.824 21.248C126.024 22.016 125.128 22.6 124.136 23C123.16 23.4 122.152 23.6 121.112 23.6ZM121.856 20.648C122.224 20.648 122.608 20.56 123.008 20.384C123.408 20.208 123.8 19.888 124.184 19.424C124.568 18.96 124.888 18.304 125.144 17.456C124.456 17.024 123.96 16.496 123.656 15.872C123.352 15.232 123.2 14.528 123.2 13.76C123.2 13.536 123.24 13.248 123.32 12.896C123.4 12.544 123.536 12.184 123.728 11.816C123.936 11.448 124.216 11.144 124.568 10.904C123.464 11.128 122.56 11.464 121.856 11.912C121.152 12.36 120.6 12.88 120.2 13.472C119.816 14.048 119.544 14.648 119.384 15.272C119.24 15.88 119.168 16.464 119.168 17.024C119.168 17.664 119.272 18.264 119.48 18.824C119.688 19.368 119.992 19.808 120.392 20.144C120.792 20.48 121.28 20.648 121.856 20.648Z" stroke="#0F4F72" stroke-width="4" mask="url(#path-1-outside-1_11_5)"/>
<path d="M140.189 23.6C138.797 23.6 137.589 23.336 136.565 22.808C135.557 22.264 134.773 21.52 134.213 20.576C133.669 19.632 133.397 18.536 133.397 17.288C133.397 15.992 133.629 14.816 134.093 13.76C134.557 12.688 135.213 11.768 136.061 11C136.909 10.232 137.893 9.64 139.013 9.224C140.149 8.808 141.373 8.6 142.685 8.6C144.109 8.6 145.205 8.872 145.973 9.416C146.757 9.944 147.149 10.608 147.149 11.408C147.149 12.176 146.869 12.76 146.309 13.16C145.765 13.56 145.141 13.76 144.437 13.76C143.957 13.76 143.453 13.6 142.925 13.28C142.397 12.96 141.973 12.464 141.653 11.792C140.949 12.08 140.349 12.528 139.853 13.136C139.373 13.728 139.005 14.392 138.749 15.128C138.509 15.848 138.389 16.56 138.389 17.264C138.389 18.208 138.589 19.024 138.989 19.712C139.389 20.384 139.981 20.72 140.765 20.72C141.309 20.72 141.805 20.512 142.253 20.096C142.701 19.664 142.925 18.984 142.925 18.056C144.013 18.056 144.869 18.176 145.493 18.416C146.117 18.656 146.429 19.088 146.429 19.712C146.429 20.288 146.173 20.88 145.661 21.488C145.149 22.08 144.429 22.584 143.501 23C142.573 23.4 141.469 23.6 140.189 23.6Z" stroke="#0F4F72" stroke-width="4" mask="url(#path-1-outside-1_11_5)"/>
<path d="M155.373 7.04C154.637 7.04 154.029 6.88 153.549 6.56C153.069 6.24 152.829 5.808 152.829 5.264C152.829 4.736 153.005 4.304 153.357 3.968C153.709 3.616 154.133 3.352 154.629 3.176C155.141 3 155.621 2.912 156.069 2.912C156.805 2.912 157.413 3.072 157.893 3.392C158.373 3.696 158.613 4.128 158.613 4.688C158.613 5.152 158.461 5.568 158.157 5.936C157.853 6.288 157.453 6.56 156.957 6.752C156.477 6.944 155.949 7.04 155.373 7.04ZM153.933 23.6C152.909 23.6 152.181 23.344 151.749 22.832C151.317 22.32 151.101 21.584 151.101 20.624C151.101 20.272 151.149 19.784 151.245 19.16C151.341 18.52 151.469 17.816 151.629 17.048C151.789 16.264 151.957 15.472 152.133 14.672C152.309 13.872 152.477 13.12 152.637 12.416L151.293 10.4C152.141 9.888 152.949 9.464 153.717 9.128C154.485 8.776 155.253 8.6 156.021 8.6C156.693 8.6 157.157 8.744 157.413 9.032C157.685 9.32 157.821 9.768 157.821 10.376C157.821 10.616 157.757 11.008 157.629 11.552C157.517 12.096 157.373 12.736 157.197 13.472C157.021 14.208 156.845 14.984 156.669 15.8C156.493 16.6 156.341 17.392 156.213 18.176C156.101 18.944 156.045 19.632 156.045 20.24C156.045 20.72 156.101 21.152 156.213 21.536C156.341 21.904 156.533 22.2 156.789 22.424C155.893 23.208 154.941 23.6 153.933 23.6Z" stroke="#0F4F72" stroke-width="4" mask="url(#path-1-outside-1_11_5)"/>
<path d="M168.71 23.6C167.222 23.6 165.966 23.336 164.942 22.808C163.918 22.28 163.142 21.544 162.614 20.6C162.102 19.64 161.846 18.536 161.846 17.288C161.846 15.992 162.078 14.816 162.542 13.76C163.022 12.688 163.686 11.768 164.534 11C165.382 10.232 166.366 9.64 167.486 9.224C168.622 8.808 169.846 8.6 171.158 8.6C172.71 8.6 173.854 8.944 174.59 9.632C175.326 10.32 175.694 11.184 175.694 12.224C175.694 13.12 175.398 13.968 174.806 14.768C174.23 15.552 173.294 16.192 171.998 16.688C170.702 17.168 168.974 17.416 166.814 17.432C166.862 18.456 167.094 19.264 167.51 19.856C167.942 20.432 168.478 20.72 169.118 20.72C169.438 20.72 169.774 20.648 170.126 20.504C170.478 20.344 170.774 20.072 171.014 19.688C171.254 19.288 171.374 18.744 171.374 18.056C172.462 18.056 173.318 18.176 173.942 18.416C174.566 18.656 174.878 19.088 174.878 19.712C174.878 20.288 174.63 20.88 174.134 21.488C173.638 22.08 172.926 22.584 171.998 23C171.086 23.4 169.99 23.6 168.71 23.6ZM167.03 15.512C168.198 15.416 169.134 15.2 169.838 14.864C170.542 14.528 171.054 14.144 171.374 13.712C171.694 13.28 171.854 12.88 171.854 12.512C171.854 12.192 171.758 11.928 171.566 11.72C171.374 11.512 171.102 11.408 170.75 11.408C170.174 11.408 169.638 11.608 169.142 12.008C168.646 12.408 168.214 12.928 167.846 13.568C167.494 14.192 167.222 14.84 167.03 15.512Z" stroke="#0F4F72" stroke-width="4" mask="url(#path-1-outside-1_11_5)"/>
<path d="M183.907 23.6C182.883 23.6 182.155 23.296 181.723 22.688C181.291 22.08 181.075 21.152 181.075 19.904C181.075 19.552 181.115 19.056 181.195 18.416C181.275 17.76 181.379 17.032 181.507 16.232C181.651 15.432 181.787 14.64 181.915 13.856C181.579 13.92 181.251 13.992 180.931 14.072C180.627 14.152 180.339 14.24 180.067 14.336C180.003 14.096 179.955 13.856 179.923 13.616C179.907 13.376 179.899 13.2 179.899 13.088C179.899 12.256 180.139 11.656 180.619 11.288C181.115 10.904 181.707 10.712 182.395 10.712C182.395 10.344 182.347 9.936 182.251 9.488C182.155 9.04 181.987 8.544 181.747 8C182.419 7.504 183.091 7.088 183.763 6.752C184.435 6.416 185.179 6.248 185.995 6.248C186.699 6.248 187.187 6.384 187.459 6.656C187.731 6.912 187.867 7.344 187.867 7.952C187.867 8.256 187.835 8.616 187.771 9.032C187.707 9.448 187.627 9.904 187.531 10.4C187.883 10.352 188.219 10.296 188.539 10.232C188.859 10.152 189.171 10.072 189.475 9.992C189.539 10.168 189.579 10.352 189.595 10.544C189.627 10.72 189.643 10.896 189.643 11.072C189.643 11.712 189.443 12.272 189.043 12.752C188.659 13.216 188.059 13.448 187.243 13.448H186.883C186.659 14.472 186.459 15.52 186.283 16.592C186.107 17.664 186.019 18.664 186.019 19.592C186.019 20.216 186.075 20.776 186.187 21.272C186.315 21.752 186.507 22.136 186.763 22.424C185.867 23.208 184.915 23.6 183.907 23.6Z" stroke="#0F4F72" stroke-width="4" mask="url(#path-1-outside-1_11_5)"/>
<path d="M196.713 28.64C195.609 28.64 194.681 28.4 193.929 27.92C193.177 27.44 192.801 26.768 192.801 25.904C192.801 25.552 192.873 25.176 193.017 24.776C193.161 24.376 193.385 23.952 193.689 23.504C194.057 24.032 194.497 24.432 195.009 24.704C195.521 24.992 196.041 25.136 196.569 25.136C197.193 25.136 197.793 24.928 198.369 24.512C198.945 24.096 199.409 23.432 199.761 22.52C199.361 22.664 198.985 22.768 198.633 22.832C198.281 22.896 197.945 22.928 197.625 22.928C196.793 22.928 196.121 22.712 195.609 22.28C195.097 21.832 194.801 21.192 194.721 20.36C194.609 19.304 194.537 18.208 194.505 17.072C194.473 15.936 194.409 14.904 194.313 13.976C194.201 12.888 193.969 11.984 193.617 11.264C193.265 10.544 192.857 10 192.393 9.632C192.777 9.28 193.177 9.024 193.593 8.864C194.025 8.688 194.569 8.6 195.225 8.6C196.025 8.6 196.673 8.84 197.169 9.32C197.681 9.8 198.073 10.48 198.345 11.36C198.617 12.224 198.801 13.24 198.897 14.408C199.009 15.56 199.065 16.816 199.065 18.176C199.065 18.368 199.057 18.664 199.041 19.064C199.041 19.464 199.025 19.864 198.993 20.264H200.385C200.641 19.56 200.913 18.808 201.201 18.008C201.489 17.208 201.753 16.4 201.993 15.584C202.249 14.752 202.457 13.96 202.617 13.208C202.777 12.44 202.857 11.76 202.857 11.168C202.857 10.816 202.817 10.52 202.737 10.28C202.673 10.04 202.593 9.824 202.497 9.632C203.057 9.28 203.609 9.024 204.153 8.864C204.697 8.688 205.185 8.6 205.617 8.6C206.353 8.6 206.889 8.848 207.225 9.344C207.577 9.84 207.753 10.488 207.753 11.288C207.753 11.88 207.665 12.568 207.489 13.352C207.313 14.12 207.089 14.92 206.817 15.752C206.561 16.568 206.297 17.344 206.025 18.08C205.769 18.816 205.553 19.44 205.377 19.952C204.609 22.16 203.745 23.896 202.785 25.16C201.841 26.424 200.849 27.32 199.809 27.848C198.785 28.376 197.753 28.64 196.713 28.64Z" stroke="#0F4F72" stroke-width="4" mask="url(#path-1-outside-1_11_5)"/>
</svg>
